<svg width="45" height="106" viewBox="0 0 45 106" fill="none" xmlns="http://www.w3.org/2000/svg">
<path d="M32.5904 3.53839C39.4393 18.9963 43.2284 34.8535 38.8143 51.5926C36.3553 62.5087 31.0637 72.4524 24.5722 81.483C20.3667 87.7333 15.5869 93.7449 9.32286 98.0577C12.1224 94.0721 14.898 90.0658 17.3015 85.8278C17.8268 84.8952 17.4365 83.6602 16.5107 83.1657C15.5609 82.6506 14.374 83.0238 13.8487 83.9564C10.2503 90.1111 6.17363 95.9927 1.74731 101.583C0.582119 102.77 0.558584 104.93 2.31092 105.558C3.68093 105.996 5.02263 105.064 6.30055 104.648C11.9718 102.148 17.8434 100.099 23.6242 97.8588C23.5505 97.8914 23.463 97.9205 23.3892 97.953C23.6071 97.8691 23.8335 97.7801 24.0513 97.6962C24.0428 97.7014 24.0256 97.7117 24.017 97.7168C25.4202 97.1791 26.8217 96.6191 28.2198 96.0729L28.2026 96.0832C28.2592 96.0609 28.3158 96.0387 28.381 96.0113C28.3466 96.0319 28.3072 96.0438 28.2677 96.0558C29.8647 95.5303 30.1096 93.2152 28.6009 92.4288C27.9923 92.094 27.296 92.1382 26.7316 92.4414C25.3387 92.9962 23.9493 93.5373 22.5461 94.0749C22.5547 94.0698 22.5632 94.0647 22.5718 94.0596C22.4671 94.0989 22.3625 94.1383 22.2579 94.1777C22.2665 94.1725 22.2837 94.1622 22.2922 94.1571C20.9457 94.6725 19.5939 95.1793 18.2422 95.6861C38.6586 73.7655 51.5137 43.3306 40.7202 13.7989C39.3455 9.77295 37.818 5.80351 36.1551 1.88034C35.7441 0.902544 34.4959 0.47311 33.5473 0.91329C32.5506 1.37059 32.164 2.53485 32.5801 3.52122L32.5904 3.53839Z" fill="#414042"/>
</svg>
