<svg width="200" height="201" viewBox="0 0 200 201" fill="none" xmlns="http://www.w3.org/2000/svg">
<g clip-path="url(#clip0_14_2160)">
<path d="M99.9538 147.48C125.659 147.48 147.018 126.121 147.018 100.323C147.018 74.4335 125.659 53.0743 99.9538 53.0743C74.2486 53.0743 52.8894 74.4335 52.8894 100.323C52.8894 126.121 74.2486 147.48 99.9538 147.48ZM100.046 35.9685C104.392 35.9685 107.998 32.3624 107.998 27.9241V8.04436C107.998 3.60609 104.392 0 100.046 0C95.6079 0 92.002 3.60609 92.002 8.04436V27.9241C92.002 32.3624 95.6079 35.9685 100.046 35.9685ZM145.354 54.9236C148.497 57.975 153.582 58.0674 156.727 54.9236L170.873 40.7766C173.925 37.7253 173.925 32.5473 170.873 29.4035C167.822 26.3522 162.737 26.3522 159.593 29.4035L145.354 43.643C142.302 46.7868 142.302 51.8723 145.354 54.9236ZM164.124 100.323C164.124 104.669 167.822 108.276 172.168 108.276H192.047C196.393 108.276 200 104.669 200 100.323C200 95.9779 196.393 92.279 192.047 92.279H172.168C167.822 92.279 164.124 95.9779 164.124 100.323ZM145.354 145.724C142.302 148.867 142.302 153.952 145.354 157.004L159.593 171.335C162.737 174.294 167.822 174.202 170.873 171.243C173.925 168.1 173.925 163.014 170.873 159.962L156.634 145.724C153.582 142.765 148.497 142.765 145.354 145.724ZM100.046 164.678C95.6079 164.678 92.002 168.284 92.002 172.63V192.603C92.002 196.948 95.6079 200.555 100.046 200.555C104.392 200.555 107.998 196.948 107.998 192.603V172.63C107.998 168.284 104.392 164.678 100.046 164.678ZM54.6462 145.724C51.5024 142.765 46.3244 142.765 43.2732 145.724L29.1262 159.87C26.0749 162.921 26.0749 168.007 29.0337 171.151C32.085 174.11 37.263 174.202 40.4067 171.243L54.5537 157.004C57.6051 153.952 57.6051 148.867 54.6462 145.724ZM35.8761 100.323C35.8761 95.9779 32.1774 92.279 27.8316 92.279H7.95189C3.60609 92.279 0 95.9779 0 100.323C0 104.669 3.60609 108.276 7.95189 108.276H27.8316C32.1774 108.276 35.8761 104.669 35.8761 100.323ZM54.5537 54.9236C57.6051 51.9648 57.6051 46.6943 54.6462 43.643L40.4992 29.4035C37.4479 26.4447 32.2699 26.3522 29.2186 29.4035C26.1673 32.5473 26.1673 37.7253 29.1262 40.6842L43.2732 54.9236C46.3244 57.975 51.41 57.975 54.5537 54.9236Z" fill="black" style="mix-blend-mode:overlay"/>
</g>
<defs>
<clipPath id="clip0_14_2160">
<rect width="200" height="200.739" fill="white"/>
</clipPath>
</defs>
</svg>
