<svg width="200" height="202" viewBox="0 0 200 202" fill="none" xmlns="http://www.w3.org/2000/svg">
<g clip-path="url(#clip0_14_2155)">
<path d="M156.817 135.833C101.977 135.833 66.9032 101.47 66.9032 46.5281C66.9032 35.1749 69.6401 18.9559 73.2894 10.5423C74.2017 8.21085 74.4044 6.79168 74.4044 5.778C74.4044 3.04105 72.3771 0 68.4237 0C67.3086 0 64.8758 0.304105 62.6457 1.11505C25.1394 16.1176 0 56.4622 0 98.9356C0 158.54 45.4131 201.115 104.815 201.115C148.505 201.115 186.316 174.658 198.885 141.612C199.798 139.281 200 136.847 200 135.935C200 132.184 196.857 129.65 194.019 129.65C192.701 129.65 191.586 129.954 189.661 130.563C181.855 133.097 169.285 135.833 156.817 135.833Z" fill="white" fill-opacity="0.4" style="mix-blend-mode:soft-light"/>
</g>
<defs>
<clipPath id="clip0_14_2155">
<rect width="200" height="201.216" fill="white"/>
</clipPath>
</defs>
</svg>
