<svg width="501" height="30" viewBox="0 0 501 30" fill="none" xmlns="http://www.w3.org/2000/svg">
<path fill-rule="evenodd" clip-rule="evenodd" d="M459.62 0.0546084C459.064 0.491416 422.404 1.2181 414.752 0.944104C414.213 0.924911 405.157 0.999697 394.629 1.11088C378.572 1.28031 375.388 1.47158 374.873 2.2949C374.389 3.07189 374.259 3.08711 374.251 2.36836C374.244 1.688 374.023 1.643 373.373 2.18901C372.843 2.63442 371.763 2.72178 370.596 2.41337C369.546 2.1354 365.849 1.91832 362.379 1.93023C358.91 1.94281 356.224 1.7019 356.411 1.39547C356.598 1.08904 354.879 1.00963 352.591 1.21943C342.299 2.16253 304.753 2.6278 303.475 1.82831C303.114 1.60262 303.016 1.74029 303.257 2.1354C303.498 2.53051 303.396 3.04078 303.031 3.26977C302.666 3.49811 302.367 3.36971 302.367 2.98453C302.367 2.59934 302.056 2.28365 301.675 2.28365C301.295 2.28365 301.165 2.58147 301.387 2.94548C301.609 3.30949 301.497 3.60731 301.138 3.60731C300.778 3.60731 300.303 3.30949 300.08 2.94548C299.858 2.58147 299.326 2.28828 298.898 2.29358C298.431 2.30019 298.512 2.56029 299.1 2.94548C300.225 3.68143 299.79 3.78071 296.16 3.61856C294.723 3.55436 293.267 3.22808 292.926 2.89253C291.99 1.97457 269.697 2.10297 269.697 3.02622C269.697 3.57289 269.465 3.57421 268.821 3.03218C268.338 2.62714 267.812 2.42859 267.651 2.59206C267.49 2.75487 264.212 2.93489 260.368 2.99181C255.963 3.05733 253.525 3.33728 253.775 3.74828C253.994 4.10765 253.55 4.06331 252.788 3.65033C252.026 3.23669 251.403 3.13277 251.404 3.41868C251.405 3.98124 243.859 3.77806 242.255 3.17249C241.716 2.96864 234.512 2.90577 226.246 3.0335C217.981 3.16058 204.07 3.26713 195.333 3.27044C186.596 3.27374 180.127 3.47031 180.958 3.70658C181.811 3.94948 180.39 4.16589 177.693 4.20296C174.91 4.24134 173.075 4.52791 173.295 4.88861C173.527 5.26784 172.913 5.28703 171.709 4.93693C170.629 4.62322 169.591 4.61991 169.402 4.92898C169.213 5.23872 168.033 5.39557 166.78 5.27711C165.526 5.1593 164.5 5.27379 164.5 5.53191C164.5 5.79068 164.059 6.57958 163.519 7.28642C162.7 8.35726 162.604 8.37844 162.936 7.41283C163.201 6.63981 163.002 6.25463 162.338 6.25463C161.79 6.25463 161.22 5.88268 161.07 5.42734C160.489 3.66092 77.6326 3.7774 64.7012 5.56302C62.6306 5.84893 58.3855 6.13616 55.2668 6.20102C52.1481 6.26654 48.7668 6.54782 47.7527 6.82645C46.7387 7.10508 44.9536 7.28179 43.7853 7.21891C42.617 7.1567 41.6618 7.36054 41.6618 7.67293C41.6618 7.98465 41.3187 8.24012 40.8993 8.24012C40.4804 8.24012 40.3315 8.04355 40.5686 7.80331C40.8058 7.56306 40.4269 6.95948 39.7271 6.46311C38.7221 5.74965 36.2092 5.6378 27.8065 5.93166C21.9507 6.13616 15.4566 6.54186 13.3756 6.83373C10.2314 7.27451 9.49307 7.18648 9.0089 6.31287C8.4888 5.37439 8.37837 5.38763 7.97915 6.43729C7.67336 7.24208 7.29243 7.41018 6.77037 6.97139C6.29665 6.57363 5.64456 6.56304 5.04932 6.94425C4.52268 7.28179 4.38546 7.56704 4.74483 7.57829C5.1042 7.58954 4.98201 7.86552 4.47236 8.1918C3.93788 8.53463 2.91336 8.54125 2.04565 8.20702C0.258609 7.51872 -0.347097 8.23019 0.187382 10.3878C0.554592 11.8689 3.11134 12.8484 3.11134 11.5082C3.11134 11.1667 3.57003 10.8874 4.12999 10.8874C4.68995 10.8874 4.96699 10.5896 4.74483 10.2256C4.52268 9.8616 4.79971 9.56378 5.35967 9.56378C6.558 9.56378 6.61028 9.87352 5.70206 11.5929C5.13033 12.6744 5.24403 12.8729 6.43517 12.8729C7.67728 12.8729 7.73869 13.006 6.94808 13.9927C6.43778 14.6307 6.38355 14.9107 6.82329 14.644C7.24734 14.3859 7.77921 14.4779 8.00529 14.8478C8.23071 15.2178 8.04906 15.5202 7.60017 15.5202C7.14018 15.5202 7.38586 16.0868 8.16406 16.8214C8.92265 17.5375 9.73155 18.7235 9.96155 19.4581C10.2549 20.3946 10.8077 20.713 11.8094 20.523C12.5961 20.3734 13.239 20.2073 13.239 20.1531C13.239 20.0988 13.9682 19.9194 14.8601 19.754C16.4289 19.4628 16.4393 19.4846 15.1868 20.4436C13.9225 21.4112 13.9296 21.435 15.4873 21.4555C17.0405 21.4761 17.049 21.5038 15.814 22.5184C15.1169 23.0916 14.9071 23.3755 15.3495 23.1498C15.7912 22.9235 17.4253 23.1763 18.9804 23.7111C22.4395 24.9004 36.5783 24.6806 36.9893 23.4311C37.154 22.9301 36.7789 22.8103 35.9132 23.0889C35.1827 23.3239 34.3953 23.2061 34.164 22.8275C33.8903 22.3788 35.1389 22.1385 37.7414 22.1385C40.24 22.1385 41.5873 21.8904 41.3351 21.4767C40.632 20.3245 50.7368 20.6474 51.8888 21.8136C52.8786 22.8169 54.4004 22.5429 53.7509 21.4787C53.5601 21.1663 54.0332 20.7077 54.8016 20.4608C56.1378 20.0313 57.604 21.1756 56.9957 22.173C56.8519 22.4086 58.1294 22.4662 59.8341 22.3C61.7838 22.1101 63.8322 22.3781 65.352 23.0214C66.681 23.584 67.9277 23.7845 68.1217 23.4668C68.3152 23.1492 69.3547 22.9149 70.4315 22.946C71.509 22.9771 72.5962 22.7931 72.8484 22.5376C73.1006 22.2822 71.6998 22.1094 69.7356 22.1531C67.7715 22.1974 64.7639 22.024 63.052 21.7679C60.443 21.3781 60.066 21.1484 60.7194 20.3509C61.1526 19.8228 62.0857 19.5548 62.8175 19.7487C63.5427 19.9406 64.5751 19.7381 65.1122 19.298C65.7682 18.7606 65.9414 18.7467 65.6408 19.2556C65.3148 19.8069 67.5291 20.028 73.8011 20.0703C80.4945 20.116 82.2358 19.9525 81.6262 19.335C81.1949 18.8982 80.0391 18.4813 79.057 18.4078C78.0756 18.335 77.0517 18.251 76.7819 18.2212C76.512 18.1921 76.2918 17.9141 76.2918 17.6037C76.2918 17.2933 78.7172 17.1477 81.6824 17.2794C84.6475 17.4111 87.5139 17.3264 88.053 17.0908C89.7198 16.3628 92.3118 16.5798 92.1263 17.4316C92.0309 17.8711 92.3249 18.1808 92.7797 18.1206C94.7196 17.8631 99.999 18.2007 99.6442 18.56C99.1222 19.0888 87.674 19.0068 85.9785 18.4621C85.0127 18.151 84.7154 18.2821 84.9291 18.9254C85.1441 19.572 86.279 19.7699 88.9978 19.6355C91.2213 19.5256 93.1534 19.7718 93.7055 20.2358C94.4151 20.8328 94.8261 20.8374 95.3985 20.2576C95.8147 19.836 96.9052 19.521 97.8213 19.5574L99.4874 19.6229L97.8539 20.1531C95.7474 20.8367 96.093 20.8877 105.041 21.2107C113.797 21.5277 114.21 21.6316 113.869 23.4291C113.621 24.7296 113.905 24.7859 120.722 24.7859C124.633 24.7859 127.972 25.0135 128.142 25.2922C128.311 25.5701 130.607 25.7468 133.244 25.6846C135.881 25.6224 141.272 25.5119 145.225 25.4384C149.178 25.3656 153.001 24.9857 153.719 24.5946C155.412 23.674 157.966 23.3901 157.966 24.1234C157.966 24.9526 160.608 25.2491 162.796 24.6661C163.836 24.3888 164.987 24.3504 165.354 24.5807C166.427 25.2518 169.728 25.3484 169.728 24.7091C169.728 24.3874 170.316 24.124 171.034 24.124C171.753 24.124 172.341 23.8262 172.341 23.4622C172.341 23.0982 173.094 22.8004 174.013 22.8004C174.933 22.8004 175.534 23.0486 175.349 23.3517C175.164 23.6555 175.367 23.9083 175.8 23.9136C176.234 23.9195 177.521 24.1366 178.662 24.3967C180.532 24.8223 180.7 24.7349 180.382 23.5032C180.068 22.2848 179.495 22.1299 175.042 22.0558C170.585 21.9817 170.365 21.9221 172.979 21.4952C174.588 21.2318 176.471 21.1676 177.165 21.351C178.117 21.6031 178.29 21.4575 177.872 20.754C177.408 19.975 177.507 19.9777 178.473 20.7725C179.477 21.5978 179.715 21.5978 180.294 20.7725C180.841 19.9896 180.898 20.0147 180.616 20.9148C180.087 22.5979 182.085 22.8202 193.518 22.3503C201.343 22.0287 203.797 22.1134 203.444 22.6925C203.185 23.1161 203.253 23.4622 203.596 23.4622C203.938 23.4622 204.387 23.0155 204.594 22.4695C204.801 21.9234 205.347 21.4813 205.808 21.4866C206.401 21.4939 206.359 21.7011 205.664 22.1988C204.793 22.8229 204.793 22.8692 205.664 22.6144C206.204 22.4562 206.607 21.8612 206.562 21.2921C206.507 20.5998 206.831 20.3906 207.542 20.66C208.498 21.022 208.506 20.9353 207.625 19.7917C206.67 18.5541 206.69 18.5508 208.392 19.6507C209.543 20.3946 210.223 20.5296 210.382 20.0465C210.626 19.3059 214.336 19.2722 222.489 19.9373C226.84 20.2927 228.169 21.4767 224.216 21.4767C222.435 21.4767 221.948 21.709 222.22 22.4284C222.431 22.983 222.119 23.496 221.473 23.6588C220.864 23.8123 221.836 23.7872 223.633 23.6025C225.43 23.4179 227.255 23.261 227.688 23.2544C228.121 23.2471 228.324 22.9936 228.139 22.6898C227.954 22.3867 228.923 22.1683 230.292 22.2047C232.397 22.2603 232.53 22.3411 231.154 22.7289C230.046 23.0413 229.785 23.3497 230.337 23.6952C230.782 23.9738 231.441 24.0181 231.8 23.7931C232.16 23.5681 232.458 23.7739 232.464 24.2504C232.472 24.9407 232.588 24.9341 233.035 24.2187C233.453 23.5522 233.719 23.5211 234.072 24.0982C234.333 24.5264 235.028 24.6886 235.617 24.4596C236.206 24.2313 238.136 23.8997 239.906 23.7243C241.676 23.5482 243.367 23.2531 243.662 23.0684C243.958 22.8831 244.025 23.1935 243.811 23.7587C243.564 24.4099 243.786 24.7859 244.417 24.7859C244.965 24.7859 245.561 24.4139 245.743 23.9586C246.006 23.2967 246.082 23.2967 246.123 23.9586C246.152 24.4139 246.634 24.7859 247.194 24.7859C247.835 24.7859 248.031 24.4794 247.722 23.9586C247.341 23.3166 247.461 23.3199 248.258 23.9738C249.287 24.8176 255.692 24.9831 256.956 24.1988C257.316 23.9758 262.056 23.76 267.49 23.719C272.925 23.6786 277.748 23.4086 278.209 23.1207C278.731 22.7931 278.885 22.8599 278.619 23.2974C278.028 24.2657 289.61 24.357 291.378 23.398C292.118 22.9969 292.552 22.9506 292.341 23.2954C292.115 23.6654 293.627 23.9235 296.019 23.9242L300.08 23.9248L297.467 23.1008C294.539 22.1783 294.544 22.165 297.977 21.799C299.504 21.6369 300.295 21.7871 300.047 22.1928C299.805 22.5899 300.571 22.7858 301.987 22.6892C303.274 22.6018 304.327 22.3265 304.327 22.0783C304.327 21.8301 311.237 21.6673 319.682 21.717C328.127 21.7673 335.036 22.0485 335.036 22.343C335.037 22.6376 334.763 22.7071 334.429 22.4979C334.094 22.2881 333.607 22.4668 333.347 22.8937C332.996 23.4682 333.688 23.5575 336.006 23.2352C337.73 22.9963 339.998 22.8004 341.048 22.8004C342.4 22.8004 342.812 22.5595 342.464 21.9731C342.107 21.3702 342.262 21.3821 343.037 22.0188C343.806 22.6501 344.447 22.7044 345.35 22.2153C346.106 21.805 346.834 21.7778 347.197 22.1452C347.967 22.9255 352.875 21.2676 352.195 20.4568C351.922 20.1319 352.23 20.2788 352.879 20.7831C353.886 21.5654 354.03 21.5654 353.859 20.7818C353.702 20.0611 354.61 19.883 358.061 19.9578C360.482 20.0108 362.631 19.7778 362.837 19.4416C363.042 19.1047 362.531 18.8248 361.702 18.8195C360.488 18.8109 360.384 18.6838 361.173 18.1676C361.934 17.6699 361.714 17.5037 360.193 17.4257C358.526 17.3403 358.464 17.2807 359.778 17.0286C360.628 16.8651 361.643 17.055 362.032 17.4495C362.923 18.3516 364.002 18.3939 363.46 17.5057C363.228 17.1258 363.821 16.8439 364.853 16.8439C366.52 16.8439 366.563 16.9081 365.446 17.7354C364.612 18.3535 364.473 18.7718 364.995 19.0981C365.408 19.3575 365.747 19.2192 365.747 18.791C365.747 18.339 366.294 18.1583 367.053 18.3588C367.771 18.5494 368.524 18.4349 368.725 18.1054C368.926 17.7758 368.559 17.476 367.909 17.4396C367.072 17.3932 367.203 17.2192 368.36 16.8439C369.538 16.462 368.732 16.2959 365.474 16.2483C360.691 16.1781 360.067 15.8022 363.81 15.2469C365.055 15.0623 367.265 14.6519 368.72 14.3362C370.176 14.0199 372.013 13.8094 372.803 13.8683C373.672 13.9332 374.241 13.5956 374.241 13.0159C374.241 12.3494 374.739 12.1535 375.874 12.3732C376.935 12.5784 377.508 12.3898 377.508 11.8345C377.508 11.364 376.846 10.8418 376.038 10.673C375.23 10.5049 375.891 10.3494 377.508 10.3289C379.125 10.3077 385.153 10.0866 390.903 9.83844C396.652 9.58959 401.21 9.54922 401.03 9.74843C400.579 10.2488 393.998 10.9404 387.09 11.2131C383.915 11.3381 381.147 11.6141 380.938 11.8259C380.729 12.0377 381.194 12.2111 381.973 12.2111C382.751 12.2111 383.389 12.5552 383.389 12.9755C383.389 13.409 383.954 13.221 384.695 12.542C385.414 11.8835 386.002 11.6466 386.002 12.0165C386.002 12.3865 386.81 12.5473 387.799 12.3739C389.542 12.0675 389.557 12.0893 388.289 13.1132C387.061 14.1039 387.209 14.1529 390.739 13.9199C392.806 13.7843 394.496 13.9398 394.496 14.2654C394.496 14.5917 393.834 14.8822 393.026 14.9107C392.218 14.9392 391.924 15.1132 392.373 15.2965C393.861 15.9048 393.22 16.7572 391.116 16.9677C388.531 17.2258 387.777 18.8294 390.241 18.8294C391.195 18.8294 392.377 19.2358 392.867 19.7321C393.47 20.3423 394.848 20.5475 397.123 20.3662C398.974 20.2179 400.328 20.3582 400.134 20.6779C399.936 21.0015 401.054 21.0624 402.664 20.8149C404.251 20.5707 405.921 20.6044 406.376 20.889C406.831 21.1736 407.358 21.1551 407.547 20.8466C407.816 20.4092 413.095 19.789 418.874 19.5164C419.165 19.5025 419.195 19.1193 418.941 18.6639C418.579 18.0127 418.663 18.0081 419.337 18.6408C420.016 19.2775 420.372 19.2086 421.046 18.3099C421.626 17.5368 421.904 17.4528 421.918 18.0465C421.932 18.6322 422.395 18.7718 423.327 18.472C424.262 18.1715 424.57 18.2655 424.269 18.7586C424.023 19.1616 424.143 19.4912 424.534 19.4912C424.926 19.4912 425.416 19.0465 425.621 18.5024C425.828 17.9584 426.291 17.6977 426.651 17.9233C427.087 18.196 427.084 18.4713 426.644 18.7467C426.281 18.9743 429.704 19.0577 434.252 18.9326C438.8 18.8069 442.374 18.844 442.194 19.0147C442.015 19.1855 438.633 19.5309 434.68 19.7831C427.742 20.2259 423.729 21.3814 428.506 21.5614C432.83 21.7242 440.597 21.5422 445.461 21.1637C448.156 20.9539 451.243 20.7156 452.321 20.6335C453.399 20.5508 454.778 20.0611 455.386 19.5435C456.596 18.5137 459.744 18.1431 460.249 18.971C460.423 19.2569 461.321 19.4912 462.241 19.4912C463.615 19.4912 463.778 19.6607 463.145 20.4317C462.513 21.204 462.617 21.3086 463.729 21.0141C464.474 20.8169 465.252 20.3787 465.458 20.0412C465.677 19.6825 466.217 19.75 466.755 20.202C468.006 21.2537 467.927 20.5012 466.65 19.2073C465.717 18.2622 465.869 18.1676 468.322 18.1676C469.877 18.1676 470.857 17.8989 470.634 17.5329C470.399 17.1483 471.219 17.0431 472.719 17.2662C474.078 17.4687 475.632 17.611 476.171 17.5832C481.674 17.2979 487.639 17.6877 488.048 18.3588C488.401 18.936 488.77 18.8274 489.394 17.9617C489.995 17.1305 491.337 16.6976 493.831 16.5315C495.797 16.4005 496.891 16.4389 496.263 16.6169C494.951 16.9888 494.716 18.1404 495.936 18.2225C496.386 18.2529 497.415 18.3522 498.223 18.4429C499.031 18.5336 499.693 18.3423 499.693 18.018C499.693 17.693 499.987 17.6116 500.347 17.8367C500.706 18.0617 501 17.7811 501 17.2139C501 16.6467 500.733 16.1821 500.408 16.1821C500.082 16.1821 499.97 15.5864 500.157 14.8584C500.469 13.6493 499.845 13.1972 498.223 13.4567C497.953 13.4997 497.779 13.3117 497.837 13.0384C498.066 11.9424 496.92 10.3295 496.13 10.6366C495.667 10.816 495.114 10.5029 494.901 9.94036C494.688 9.3778 494.723 8.98865 494.98 9.07535C495.236 9.16205 495.593 8.93504 495.773 8.57103C495.953 8.20703 495.176 7.81853 494.047 7.70734C492.488 7.5538 492.063 7.2348 492.282 6.38368C492.485 5.59081 491.843 4.93229 490.088 4.13744L487.605 3.01365L489.892 2.92695L492.179 2.84091L490.382 2.17643C489.394 1.81044 488.585 1.2876 488.585 1.0136C488.585 0.739601 486.748 0.425893 484.502 0.316029C480.33 0.112185 459.821 -0.103569 459.62 0.0546084ZM246.706 2.73568C247.177 2.92695 247.741 2.90312 247.958 2.68339C248.175 2.46366 247.79 2.30748 247.101 2.33593C246.34 2.3677 246.185 2.52455 246.706 2.73568ZM378.337 2.71781C377.895 2.89915 377.013 2.9104 376.377 2.7423C375.741 2.57419 376.103 2.42594 377.181 2.41271C378.259 2.39947 378.779 2.53647 378.337 2.71781ZM416.571 2.76943C414.875 2.90511 411.935 2.90643 410.037 2.77208C408.138 2.63839 409.524 2.5272 413.118 2.52522C416.712 2.52389 418.266 2.6331 416.571 2.76943ZM161.887 5.19107C161.887 5.33402 162.328 5.62258 162.867 5.83238C163.406 6.04152 163.847 5.92438 163.847 5.57228C163.847 5.21953 163.406 4.93097 162.867 4.93097C162.328 4.93097 161.887 5.04811 161.887 5.19107ZM160.519 5.87474C159.956 6.4459 154.699 6.69938 154.699 6.15535C154.699 5.84628 156.072 5.5928 157.749 5.5928C159.426 5.5928 160.673 5.71987 160.519 5.87474ZM173.648 7.025C173.648 7.32944 172.987 7.60079 172.178 7.62925C171.369 7.65705 170.192 7.77948 169.561 7.90192C168.93 8.0237 168.58 7.85229 168.783 7.52005C168.985 7.18781 168.84 6.91646 168.459 6.91646C168.079 6.91646 167.767 7.21428 167.767 7.57829C167.767 8.6167 166.643 8.35263 166.211 7.21296C165.883 6.34596 166.433 6.2083 169.735 6.32875C171.887 6.40751 173.648 6.72056 173.648 7.025ZM152.345 8.35064C152.16 8.65376 151.291 8.90195 150.414 8.90195C149.536 8.90195 148.819 8.65376 148.819 8.35064C148.819 8.04686 149.688 7.79868 150.75 7.79868C151.813 7.79868 152.53 8.04686 152.345 8.35064ZM160.213 9.49428C160.044 9.66636 159.58 9.47708 159.182 9.07469C158.786 8.67295 157.982 8.49757 157.397 8.68486C156.53 8.9635 156.504 8.90327 157.255 8.36322C158.154 7.71595 160.923 8.77487 160.213 9.49428ZM377.508 7.83905C377.508 8.32681 373.608 8.6617 372.922 8.23284C372.54 7.99325 373.415 7.75036 374.868 7.69278C376.319 7.6352 377.508 7.70072 377.508 7.83905ZM406.541 8.31027C406.103 9.02902 404.49 9.09123 404.072 8.40557C403.905 8.1329 404.474 7.86619 405.335 7.8139C406.197 7.76162 406.74 7.98531 406.541 8.31027ZM454.935 8.25931C452.694 8.90526 434.351 9.43141 434.353 8.84966C434.353 8.6392 436.037 8.39763 438.095 8.31358C440.154 8.22887 441.895 8.10378 441.964 8.03429C442.034 7.96546 445.422 7.86089 449.493 7.80198C454.515 7.72918 456.265 7.87611 454.935 8.25931ZM345.491 9.30368C345.491 9.44663 345.05 9.56378 344.511 9.56378C343.972 9.56378 343.531 9.27522 343.531 8.92246C343.531 8.57037 343.972 8.45323 344.511 8.66236C345.05 8.87216 345.491 9.16072 345.491 9.30368ZM400.2 8.63986C399.983 8.85959 399.419 8.88341 398.948 8.69215C398.426 8.48102 398.581 8.32417 399.342 8.2924C400.031 8.26394 400.417 8.42013 400.2 8.63986ZM402.813 8.63986C402.596 8.85959 402.033 8.88341 401.561 8.69215C401.04 8.48102 401.195 8.32417 401.956 8.2924C402.645 8.26394 403.03 8.42013 402.813 8.63986ZM281.684 9.92315C281.471 10.485 281.157 10.8027 280.985 10.6293C280.814 10.4559 280.868 9.99595 281.105 9.60812C281.749 8.55184 282.126 8.75701 281.684 9.92315ZM334.305 9.9258C334.469 10.0906 333.394 10.2256 331.918 10.2256C330.441 10.2256 329.052 10.5234 328.83 10.8874C328.608 11.2514 328.076 11.5446 327.648 11.5393C327.18 11.5327 327.261 11.2726 327.85 10.8874C328.581 10.4089 328.166 10.2183 326.216 10.1363L323.603 10.0271L326.543 9.61871C329.515 9.20705 333.762 9.37449 334.305 9.9258ZM337.161 9.34008C336.712 9.52407 335.977 9.52407 335.527 9.34008C335.078 9.15675 335.445 9.00651 336.344 9.00651C337.242 9.00651 337.61 9.15675 337.161 9.34008ZM139.998 10.2256C139.776 10.5896 138.95 10.8577 138.163 10.8213C136.83 10.7604 136.844 10.7187 138.365 10.2256C139.263 9.9344 140.089 9.66636 140.2 9.62996C140.311 9.59356 140.22 9.8616 139.998 10.2256ZM144.245 10.2256C144.245 10.5896 143.951 10.8874 143.592 10.8874C143.232 10.8874 142.938 10.5896 142.938 10.2256C142.938 9.8616 143.232 9.56378 143.592 9.56378C143.951 9.56378 144.245 9.8616 144.245 10.2256ZM371.677 10.1806C370.489 10.9424 363.699 10.9046 364.166 10.1389C364.359 9.82255 366.337 9.56841 368.562 9.5737C371.219 9.58032 372.288 9.7888 371.677 10.1806ZM453.746 9.99727C453.075 10.6756 440.544 10.8305 439.519 10.1727C438.953 9.80998 441.587 9.58032 446.387 9.5737C450.669 9.56841 453.981 9.75902 453.746 9.99727ZM139.682 11.7405L142.612 12.0225L139.396 11.9517C137.134 11.9014 136.101 11.5857 135.916 10.8874C135.733 10.2011 135.822 10.1363 136.202 10.6763C136.505 11.1065 138.071 11.585 139.682 11.7405ZM132.828 12.0834C132.627 12.2872 132.1 12.084 131.656 11.6313C131.016 10.9774 131.091 10.902 132.022 11.2607C132.666 11.5096 133.029 11.8795 132.828 12.0834ZM135.355 11.9358C135.599 12.5797 135.453 12.8829 134.975 12.7214C133.999 12.3918 133.461 10.8874 134.32 10.8874C134.671 10.8874 135.136 11.3593 135.355 11.9358ZM323.12 11.3421C322.496 11.5076 321.32 11.5135 320.507 11.3554C319.694 11.1972 320.205 11.0615 321.642 11.0542C323.08 11.0469 323.745 11.1767 323.12 11.3421ZM378.161 12.2111C378.161 12.5751 378.602 12.8729 379.141 12.8729C379.68 12.8729 380.122 12.5751 380.122 12.2111C380.122 11.8471 379.68 11.5493 379.141 11.5493C378.602 11.5493 378.161 11.8471 378.161 12.2111ZM119.589 12.677C118.785 12.8339 117.315 12.8379 116.322 12.6863C115.328 12.5341 115.986 12.4057 117.783 12.4004C119.579 12.3957 120.392 12.5202 119.589 12.677ZM140.801 13.2727C140.584 13.4924 140.02 13.5162 139.549 13.325C139.028 13.1138 139.183 12.957 139.944 12.9252C140.633 12.8968 141.018 13.0529 140.801 13.2727ZM292.566 13.8266C292.566 13.9874 292.272 14.3025 291.913 14.5275C291.554 14.7525 291.259 14.6208 291.259 14.2356C291.259 13.8504 291.554 13.5348 291.913 13.5348C292.272 13.5348 292.566 13.6658 292.566 13.8266ZM375.426 13.9868C375.897 14.1781 376.461 14.1542 376.677 13.9345C376.894 13.7148 376.509 13.5586 375.82 13.587C375.059 13.6188 374.904 13.7757 375.426 13.9868ZM378.039 13.9868C378.51 14.1781 379.074 14.1542 379.291 13.9345C379.508 13.7148 379.122 13.5586 378.434 13.587C377.673 13.6188 377.518 13.7757 378.039 13.9868ZM284.984 14.8994C285.186 15.104 283.519 15.282 281.281 15.2952C278.729 15.3104 277.82 15.1523 278.845 14.8717C280.757 14.3475 284.456 14.364 284.984 14.8994ZM490.366 15.1172C490.584 15.3389 488.142 15.4991 484.938 15.4739C481.298 15.4448 479.602 15.2271 480.418 14.8935C481.864 14.3031 489.737 14.4805 490.366 15.1172ZM272.787 15.2582C272.57 15.4779 272.007 15.5017 271.535 15.3104C271.014 15.0993 271.169 14.9425 271.93 14.9107C272.619 14.8822 273.004 15.0384 272.787 15.2582ZM478.784 15.1503C478.784 15.8485 477.531 16.1424 477.158 15.5308C476.932 15.1609 477.206 14.8584 477.766 14.8584C478.326 14.8584 478.784 14.9895 478.784 15.1503ZM100.234 16.513C99.6952 17.059 98.883 17.5057 98.4289 17.5057C97.9663 17.5057 98.1604 17.0795 98.8726 16.5342C100.537 15.2588 101.487 15.2443 100.234 16.513ZM371.627 16.1616C371.627 16.5137 372.068 16.6308 372.607 16.4217C373.147 16.2119 373.588 15.9233 373.588 15.7803C373.588 15.6374 373.147 15.5202 372.607 15.5202C372.068 15.5202 371.627 15.8088 371.627 16.1616ZM96.2204 16.8439C97.3783 17.3482 97.3227 17.4177 95.7304 17.4594C94.7425 17.4846 93.9336 17.2079 93.9336 16.8439C93.9336 16.0669 94.436 16.0669 96.2204 16.8439ZM273.14 16.6162C272.698 16.7976 271.816 16.8088 271.18 16.6407C270.544 16.4726 270.906 16.3244 271.984 16.3111C273.062 16.2979 273.582 16.4349 273.14 16.6162ZM282.929 16.6606C281.76 16.8075 279.85 16.8075 278.682 16.6606C277.513 16.5143 278.469 16.3939 280.805 16.3939C283.141 16.3939 284.097 16.5143 282.929 16.6606ZM323.099 16.5818C322.882 16.8015 322.318 16.8254 321.847 16.6341C321.326 16.423 321.48 16.2661 322.242 16.2344C322.93 16.2059 323.316 16.3621 323.099 16.5818ZM328.503 17.4925C327.451 18.196 329.494 18.4197 334.71 18.1715C336.148 18.1034 337.101 18.2754 336.829 18.5541C336.556 18.8327 334.265 19.016 331.737 18.9624C328.303 18.889 327.243 19.069 327.545 19.6739C327.767 20.1193 327.36 19.8076 326.64 18.981C325.763 17.9736 325.179 17.7248 324.873 18.2271C324.621 18.6401 324.781 19.2066 325.228 19.4859C325.682 19.7699 324.78 19.9869 323.188 19.977C321.62 19.9677 320.877 19.8274 321.539 19.6653C322.2 19.5031 323.235 18.8711 323.839 18.2596C324.442 17.6487 325.959 17.0789 327.209 16.9928C328.9 16.8777 329.232 17.0054 328.503 17.4925ZM436.15 17.2999C435.522 17.4667 434.492 17.4667 433.863 17.2999C433.235 17.1338 433.749 16.9975 435.007 16.9975C436.265 16.9975 436.779 17.1338 436.15 17.2999ZM440.057 17.2436C439.84 17.4634 439.276 17.4872 438.805 17.2959C438.284 17.0848 438.439 16.928 439.2 16.8962C439.888 16.8677 440.274 17.0239 440.057 17.2436ZM75.9501 18.4349L77.7175 19.3635L75.2777 19.2933C73.9357 19.2549 73.1758 19.1093 73.5887 18.9697C74.0017 18.8307 74.1735 18.4442 73.9703 18.1113C73.4639 17.2807 73.8847 17.3495 75.9501 18.4349ZM182.618 17.9055C182.402 18.1252 181.838 18.149 181.367 17.9578C180.845 17.7466 181 17.5898 181.761 17.558C182.45 17.5296 182.835 17.6858 182.618 17.9055ZM185.573 17.9439C185.124 18.1279 184.389 18.1279 183.939 17.9439C183.49 17.7605 183.857 17.6103 184.756 17.6103C185.654 17.6103 186.022 17.7605 185.573 17.9439ZM322.296 18.1676C322.074 18.5316 321.248 18.7996 320.46 18.7632C319.128 18.7023 319.142 18.6606 320.662 18.1676C321.561 17.8764 322.387 17.6083 322.498 17.5719C322.609 17.5355 322.518 17.8036 322.296 18.1676ZM340.264 18.1676C340.264 18.5316 339.953 18.8294 339.572 18.8294C339.192 18.8294 339.062 18.5316 339.284 18.1676C339.506 17.8036 339.817 17.5057 339.976 17.5057C340.135 17.5057 340.264 17.8036 340.264 18.1676ZM346.909 17.9849C345.352 18.1815 344.835 18.5289 345.092 19.206C345.589 20.5184 344.828 20.3926 343.82 18.9962C343.361 18.3595 342.749 18.0776 342.46 18.3701C342.172 18.662 342.368 19.1782 342.897 19.517C343.425 19.8559 343.527 20.1372 343.121 20.1431C342.716 20.1484 342.042 19.7354 341.624 19.2245C340.649 18.0352 341.306 17.7996 345.728 17.7486C347.705 17.7261 348.19 17.8234 346.909 17.9849ZM351.535 17.9439C351.087 18.1279 350.351 18.1279 349.902 17.9439C349.453 17.7605 349.82 17.6103 350.719 17.6103C351.617 17.6103 351.985 17.7605 351.535 17.9439ZM368.93 18.6064C368.175 19.5336 368.173 19.754 368.924 20.0101C369.676 20.2662 369.676 20.4026 368.924 20.885C368.33 21.2663 368.837 21.4595 370.445 21.4668C371.772 21.4721 373.016 21.216 373.211 20.897C373.405 20.5779 375.701 20.3827 378.313 20.4635C380.925 20.5435 383.944 20.3933 385.022 20.1286C387.19 19.5971 387.3 19.6097 376.208 19.0988C373.517 18.9743 371.214 18.5653 371.09 18.1894C370.763 17.1947 369.953 17.3509 368.93 18.6064ZM384.695 18.1371C385.234 18.5071 386.239 18.8135 386.928 18.8195C388.599 18.8327 388.078 18.4541 385.675 17.9095C384.244 17.5852 383.98 17.6467 384.695 18.1371ZM314.128 18.8294C314.128 19.1934 313.817 19.4912 313.436 19.4912C313.056 19.4912 312.926 19.1934 313.148 18.8294C313.37 18.4654 313.681 18.1676 313.84 18.1676C313.999 18.1676 314.128 18.4654 314.128 18.8294ZM80.0351 19.2291C79.8182 19.4489 79.2543 19.4727 78.7832 19.2814C78.2618 19.0703 78.4167 18.9134 79.1779 18.8817C79.8666 18.8532 80.2521 19.0094 80.0351 19.2291ZM82.8258 19.4912C82.8258 19.8552 83.1198 20.1531 83.4792 20.1531C83.8386 20.1531 84.1326 19.8552 84.1326 19.4912C84.1326 19.1272 83.8386 18.8294 83.4792 18.8294C83.1198 18.8294 82.8258 19.1272 82.8258 19.4912ZM205.84 19.2636C205.398 19.4449 204.516 19.4561 203.88 19.288C203.244 19.1199 203.606 18.9717 204.684 18.9585C205.762 18.9452 206.283 19.0822 205.84 19.2636ZM366.727 19.4912C366.949 19.8552 367.26 20.1531 367.419 20.1531C367.578 20.1531 367.707 19.8552 367.707 19.4912C367.707 19.1272 367.395 18.8294 367.015 18.8294C366.635 18.8294 366.505 19.1272 366.727 19.4912ZM403.154 19.2966C402.346 19.4542 401.022 19.4542 400.213 19.2966C399.405 19.1385 400.066 19.0094 401.684 19.0094C403.301 19.0094 403.962 19.1385 403.154 19.2966ZM448.238 19.2966C447.43 19.4542 446.106 19.4542 445.298 19.2966C444.49 19.1385 445.151 19.0094 446.768 19.0094C448.385 19.0094 449.046 19.1385 448.238 19.2966ZM59.5413 20.48C59.3349 21.024 58.8723 21.2848 58.5116 21.0591C58.1091 20.8069 58.1986 20.4304 58.7435 20.0803C59.9334 19.3172 59.9739 19.337 59.5413 20.48ZM319.682 20.1531C319.46 20.5171 319.002 20.8149 318.664 20.8149C318.325 20.8149 318.049 20.5171 318.049 20.1531C318.049 19.789 318.507 19.4912 319.067 19.4912C319.627 19.4912 319.904 19.789 319.682 20.1531ZM349.249 19.9472C348.62 20.114 347.59 20.114 346.962 19.9472C346.333 19.7811 346.847 19.6448 348.105 19.6448C349.363 19.6448 349.877 19.7811 349.249 19.9472ZM188.521 20.6077C187.896 20.7732 186.72 20.7791 185.907 20.621C185.094 20.4628 185.605 20.3271 187.043 20.3198C188.48 20.3126 189.145 20.4423 188.521 20.6077ZM295.447 21.079C294.761 21.5555 293.171 21.8659 291.913 21.7679C290.655 21.6706 288.8 21.5647 287.791 21.5336C286.781 21.5025 286.094 21.253 286.264 20.9803C286.434 20.7077 288.85 20.4231 291.633 20.3483C295.98 20.2311 296.518 20.3344 295.447 21.079ZM363.787 20.8149C363.787 21.1789 364.063 21.4767 364.401 21.4767C364.74 21.4767 365.198 21.1789 365.42 20.8149C365.642 20.4509 365.365 20.1531 364.805 20.1531C364.245 20.1531 363.787 20.4509 363.787 20.8149ZM455.793 20.6051C456.264 20.7964 456.828 20.7725 457.045 20.5528C457.262 20.3331 456.877 20.1769 456.188 20.2053C455.427 20.2371 455.272 20.394 455.793 20.6051ZM498.386 20.8149C498.386 21.1789 498.992 21.4767 499.732 21.4767C500.471 21.4767 500.895 21.1789 500.673 20.8149C500.451 20.4509 499.846 20.1531 499.328 20.1531C498.81 20.1531 498.386 20.4509 498.386 20.8149ZM55.0218 21.4205C55.225 21.7534 55.0218 22.1591 54.5703 22.3225C54.1188 22.4853 53.9861 22.8745 54.2749 23.1869C54.5644 23.4993 55.0741 23.3166 55.4086 22.7812C56.2136 21.4919 56.1914 20.8149 55.3446 20.8149C54.9643 20.8149 54.8186 21.0876 55.0218 21.4205ZM83.9862 21.3033C85.934 21.441 87.2676 21.8195 87.0513 22.1736C86.8409 22.5184 87.642 22.811 88.8312 22.8242C90.0204 22.8374 95.4416 23.0208 100.879 23.2325C107.48 23.49 111.17 23.3788 111.986 22.8983C112.906 22.3569 110.731 22.1736 103.206 22.1584C96.7085 22.1458 93.3448 21.9069 93.6069 21.4767C93.8676 21.0492 91.6284 20.8579 87.2748 20.9373C83.5504 21.0048 82.0803 21.169 83.9862 21.3033ZM230.316 21.2146C230.1 21.4344 229.536 21.4582 229.065 21.2669C228.543 21.0558 228.698 20.8989 229.459 20.8672C230.148 20.8387 230.533 20.9949 230.316 21.2146ZM385.289 21.5277C384.62 21.9579 384.858 22.1213 386.165 22.1286C388.116 22.1392 388.468 21.8149 387.086 21.2782C386.605 21.0909 385.796 21.2034 385.289 21.5277ZM395.15 21.4483C392.015 21.9526 393.529 22.6177 396.783 22.1663C398.221 21.9665 398.956 21.6408 398.417 21.4416C397.878 21.2431 396.407 21.2457 395.15 21.4483ZM417.038 21.4013L415.078 21.8705L416.969 22.2616C418.009 22.4774 419.706 22.4079 420.739 22.1074C421.881 21.7759 422.47 21.8043 422.24 22.1809C422.019 22.5423 423.445 22.7626 425.657 22.7104C427.745 22.6607 428.718 22.4834 427.82 22.3159C426.921 22.1485 425.892 21.7924 425.533 21.5244C424.672 20.8824 419.516 20.8076 417.038 21.4013ZM492.016 21.2709C492.644 21.4377 493.674 21.4377 494.303 21.2709C494.931 21.1048 494.417 20.9684 493.159 20.9684C491.901 20.9684 491.387 21.1048 492.016 21.2709ZM44.1532 21.9287C44.6243 22.12 45.1882 22.0962 45.4051 21.8765C45.622 21.6567 45.2365 21.5005 44.5478 21.529C43.7866 21.5608 43.6318 21.7176 44.1532 21.9287ZM91.8178 21.9314C91.1932 22.0968 90.0171 22.1028 89.2043 21.9446C88.3914 21.7865 88.9024 21.6508 90.3399 21.6435C91.7773 21.6362 92.4425 21.7659 91.8178 21.9314ZM277.061 21.9109C276.618 22.0922 275.736 22.1035 275.1 21.9354C274.465 21.7673 274.827 21.619 275.905 21.6058C276.983 21.5925 277.503 21.7295 277.061 21.9109ZM284.548 21.8765C284.332 22.0962 283.768 22.12 283.297 21.9287C282.775 21.7176 282.93 21.5608 283.691 21.529C284.38 21.5005 284.765 21.6567 284.548 21.8765ZM375.06 22.2577C374.312 22.5515 374.707 22.7071 376.201 22.7071C377.459 22.7071 379.076 22.4602 379.795 22.1577C380.785 21.7408 380.509 21.6316 378.654 21.7077C377.307 21.7626 375.69 22.0101 375.06 22.2577ZM465.553 21.9148C466.003 22.0988 466.738 22.0988 467.187 21.9148C467.636 21.7315 467.268 21.5813 466.37 21.5813C465.472 21.5813 465.104 21.7315 465.553 21.9148ZM32.7736 22.9109C32.5887 23.214 31.9961 23.4622 31.457 23.4622C30.918 23.4622 30.6285 23.214 30.8134 22.9109C30.9983 22.6071 31.591 22.3589 32.13 22.3589C32.6691 22.3589 32.9585 22.6071 32.7736 22.9109ZM208.454 22.5972C209.09 22.7653 209.972 22.754 210.414 22.5727C210.856 22.3914 210.336 22.2544 209.258 22.2676C208.18 22.2808 207.818 22.4291 208.454 22.5972ZM219.917 22.5906C220.388 22.7818 220.952 22.758 221.169 22.5383C221.386 22.3186 221 22.1624 220.312 22.1908C219.55 22.2226 219.396 22.3794 219.917 22.5906ZM29.9006 23.2028C29.9006 23.7501 28.6317 24.0598 28.341 23.5833C28.1521 23.2742 28.4259 23.0208 28.9493 23.0208C29.4727 23.0208 29.9006 23.1028 29.9006 23.2028ZM38.0681 23.4622C37.8459 23.8262 37.976 24.124 38.3562 24.124C38.7365 24.124 39.0482 23.8262 39.0482 23.4622C39.0482 23.0982 38.9188 22.8004 38.76 22.8004C38.6013 22.8004 38.2902 23.0982 38.0681 23.4622ZM115.822 23.4622C116.045 23.8262 115.914 24.124 115.534 24.124C115.154 24.124 114.842 23.8262 114.842 23.4622C114.842 23.0982 114.972 22.8004 115.13 22.8004C115.289 22.8004 115.6 23.0982 115.822 23.4622ZM254.833 23.2789C253.664 23.4258 251.754 23.4258 250.586 23.2789C249.417 23.1326 250.373 23.0122 252.709 23.0122C255.045 23.0122 256.001 23.1326 254.833 23.2789ZM438.274 23.3689C438.274 24.1982 439.745 25.2227 440.724 25.0744C441.174 25.0069 442.056 24.905 442.684 24.8487C443.651 24.7614 443.676 24.6601 442.848 24.1935C441.204 23.267 438.274 22.7388 438.274 23.3689ZM444.154 24.124C444.154 24.488 444.448 24.7859 444.808 24.7859C445.167 24.7859 445.461 24.488 445.461 24.124C445.461 23.76 445.167 23.4622 444.808 23.4622C444.448 23.4622 444.154 23.76 444.154 24.124ZM455.426 23.9182C456.054 24.085 457.084 24.085 457.712 23.9182C458.341 23.7521 457.827 23.6157 456.569 23.6157C455.311 23.6157 454.797 23.7521 455.426 23.9182ZM418.019 24.6621C418.019 24.9579 419.416 25.2617 421.122 25.3365C423.382 25.4358 423.959 25.2922 423.246 24.8084C422.071 24.0122 418.019 23.899 418.019 24.6621ZM437.57 24.2895C437.053 26.003 437.315 26.5119 438.781 26.635C440.399 26.7707 440.41 26.7422 439.255 25.449C438.147 24.2094 437.69 23.8944 437.57 24.2895ZM44.8066 25.2379C45.2777 25.4292 45.8416 25.4053 46.0585 25.1856C46.2754 24.9659 45.8899 24.8097 45.2012 24.8382C44.44 24.8699 44.2852 25.0268 44.8066 25.2379ZM47.7057 25.2419C48.3343 25.4086 49.364 25.4086 49.9926 25.2419C50.6212 25.0757 50.1069 24.9394 48.8491 24.9394C47.5914 24.9394 47.0771 25.0757 47.7057 25.2419ZM322.3 25.4404C322.072 25.815 322.334 25.9262 322.915 25.7005C324.047 25.2604 324.254 24.7859 323.315 24.7859C322.976 24.7859 322.52 25.0804 322.3 25.4404ZM405.604 25.4867C405.604 25.8719 405.898 26.0036 406.257 25.7786C406.617 25.5536 406.911 25.2386 406.911 25.0777C406.911 24.9169 406.617 24.7859 406.257 24.7859C405.898 24.7859 405.604 25.1016 405.604 25.4867ZM482.189 25.5668C481.574 25.8143 483.693 26.0374 486.898 26.0632C490.102 26.0883 492.53 25.9136 492.293 25.674C491.715 25.087 483.593 25.001 482.189 25.5668ZM494.793 25.4477L492.833 25.9527L494.918 26.0314C496.064 26.0744 497.184 25.8117 497.406 25.4477C497.853 24.715 497.634 24.715 494.793 25.4477ZM270.187 25.8858C270.637 26.0698 271.372 26.0698 271.821 25.8858C272.27 25.7025 271.903 25.5523 271.004 25.5523C270.106 25.5523 269.739 25.7025 270.187 25.8858ZM300.186 25.8918C299.871 26.2114 293.739 26.8494 288.988 27.0566C286.464 27.1665 282.635 27.3359 280.478 27.4332L276.558 27.6099L279.825 28.1255C284.648 28.8866 299.028 28.8303 302.041 28.0388C303.478 27.6609 304.994 27.3207 305.409 27.2823C305.824 27.2439 306.009 26.8058 305.82 26.3081C305.596 25.7164 304.593 25.4563 302.923 25.5562C301.517 25.6403 300.286 25.7912 300.186 25.8918ZM398.09 26.0605C396.284 26.496 396.375 26.5563 399.243 26.8236C401.765 27.0586 405.565 26.5113 404.297 26.0956C403.041 25.6833 399.729 25.6648 398.09 26.0605ZM414.629 25.8997C415.1 26.091 415.664 26.0672 415.881 25.8474C416.098 25.6277 415.713 25.4715 415.024 25.5C414.263 25.5317 414.108 25.6886 414.629 25.8997ZM249.605 26.5655C250.234 26.7323 251.264 26.7323 251.892 26.5655C252.521 26.3994 252.007 26.2631 250.749 26.2631C249.491 26.2631 248.977 26.3994 249.605 26.5655ZM362.48 26.7714C361.683 27.2929 361.768 27.4147 362.931 27.4233C363.719 27.4286 364.545 27.1354 364.767 26.7714C365.281 25.9288 363.767 25.9288 362.48 26.7714ZM367.625 26.8362C367.022 27.224 367.531 27.416 369.177 27.4233C370.525 27.4286 371.627 27.2095 371.627 26.9368C371.626 26.226 368.692 26.1525 367.625 26.8362ZM419.325 26.4523C419.325 26.9878 421.198 27.2353 421.904 26.7925C422.434 26.4616 422.118 26.275 421.029 26.275C420.092 26.275 419.325 26.3551 419.325 26.4523ZM124.166 27.23C124.801 27.3981 125.683 27.3869 126.126 27.2055C126.568 27.0242 126.048 26.8872 124.97 26.9004C123.892 26.9136 123.53 27.0619 124.166 27.23ZM130.524 27.5563C129.266 27.8779 126.225 28.2578 123.766 28.3995C121.308 28.5417 119.146 28.8098 118.963 28.9958C118.096 29.874 124.403 30.2062 133.687 29.7708C148.32 29.0844 153.922 29.0189 157.64 29.4895C159.437 29.7172 161.004 29.6477 161.123 29.3353C161.242 29.0216 161.827 29.0196 162.43 29.33C163.03 29.6391 164.99 29.6768 166.787 29.4134L170.054 28.9335L166.461 28.8363C162.299 28.7231 159.808 28.1625 160.251 27.4372C160.421 27.1585 157.723 26.8819 154.255 26.8223C149.715 26.7449 147.801 26.954 147.415 27.5702C146.978 28.2671 146.877 28.2651 146.869 27.5596C146.863 27.0427 146.534 26.8964 146.054 27.1976C144.975 27.8726 142.938 27.9957 142.938 27.3855C142.938 26.7091 133.318 26.8415 130.524 27.5563ZM167.604 27.2386C168.413 27.3961 169.735 27.3961 170.544 27.2386C171.353 27.0804 170.691 26.9514 169.074 26.9514C167.457 26.9514 166.795 27.0804 167.604 27.2386ZM334.547 27.2274C335.176 27.3941 336.205 27.3941 336.834 27.2274C337.463 27.0612 336.948 26.9249 335.691 26.9249C334.433 26.9249 333.918 27.0612 334.547 27.2274ZM359.744 27.2234C360.215 27.4146 360.779 27.3908 360.996 27.1711C361.213 26.9514 360.827 26.7952 360.139 26.8236C359.377 26.8554 359.223 27.0123 359.744 27.2234ZM35.2911 27.8892C35.9204 28.056 36.9488 28.056 37.578 27.8892C38.2073 27.7231 37.6924 27.5867 36.4346 27.5867C35.1768 27.5867 34.6619 27.7231 35.2911 27.8892ZM155.353 28.1255C156.068 28.6159 155.804 28.6774 154.373 28.3531C151.97 27.8084 151.449 27.4299 153.12 27.4431C153.809 27.4491 154.814 27.7555 155.353 28.1255ZM248.789 28.2102C248.789 28.919 261.125 28.8343 262.837 28.1135C263.628 27.78 261.114 27.5828 256.466 27.6132C252.244 27.641 248.789 27.909 248.789 28.2102ZM274.802 27.8852C275.273 28.0765 275.837 28.0527 276.054 27.8329C276.271 27.6132 275.886 27.457 275.197 27.4855C274.436 27.5172 274.281 27.6741 274.802 27.8852ZM68.1244 28.7568C67.9022 29.1208 68.3263 29.4187 69.0659 29.4187C69.8056 29.4187 70.4112 29.1208 70.4112 28.7568C70.4112 28.3928 69.9878 28.095 69.4697 28.095C68.9516 28.095 68.3465 28.3928 68.1244 28.7568ZM76.6525 28.7012C76.4905 28.9666 75.1144 29.0838 73.5946 28.962C72.0742 28.8402 71.0091 28.921 71.2273 29.142C71.9245 29.8482 80.3925 30.2499 79.9698 29.557C79.4549 28.7125 77.0275 28.0864 76.6525 28.7012ZM111.902 28.7734C110.333 29.1645 110.712 29.2777 113.808 29.3406C115.934 29.3836 117.551 29.3115 117.402 29.1811C116.689 28.559 113.662 28.3346 111.902 28.7734ZM62.0929 29.2155C62.7286 29.3836 63.6107 29.3723 64.053 29.191C64.4954 29.0097 63.9753 28.8727 62.8972 28.8859C61.8191 28.8991 61.4571 29.0474 62.0929 29.2155ZM34.3522 29.8707C34.8233 30.062 35.3872 30.0381 35.6041 29.8184C35.8211 29.5987 35.4356 29.4425 34.7469 29.471C33.9857 29.5027 33.8308 29.6596 34.3522 29.8707ZM81.3557 29.8568C81.8052 30.0408 82.5403 30.0408 82.9891 29.8568C83.4387 29.6735 83.0708 29.5232 82.1724 29.5232C81.274 29.5232 80.9068 29.6735 81.3557 29.8568Z" fill="#610FA9"/>
</svg>
